$MeshFormat
4.1 0 8
$EndMeshFormat
$Entities
0 0 1 0
1 -1 -0.9963524586308328 -0.9997428008966125 1.238772725228578 0.9963524586308328 0.9997428008966125 0 0 
$EndEntities
$Nodes
1 258 1 258
2 1 0 258
1
2
3
4
5
6
7
8
9
10
11
12
13
14
15
16
17
18
19
20
21
22
23
24
25
26
27
28
29
30
31
32
33
34
35
36
37
38
39
40
41
42
43
44
45
46
47
48
49
50
51
52
53
54
55
56
57
58
59
60
61
62
63
64
65
66
67
68
69
70
71
72
73
74
75
76
77
78
79
80
81
82
83
84
85
86
87
88
89
90
91
92
93
94
95
96
97
98
99
100
101
102
103
104
105
106
107
108
109
110
111
112
113
114
115
116
117
118
119
120
121
122
123
124
125
126
127
128
129
130
131
132
133
134
135
136
137
138
139
140
141
142
143
144
145
146
147
148
149
150
151
152
153
154
155
156
157
158
159
160
161
162
163
164
165
166
167
168
169
170
171
172
173
174
175
176
177
178
179
180
181
182
183
184
185
186
187
188
189
190
191
192
193
194
195
196
197
198
199
200
201
202
203
204
205
206
207
208
209
210
211
212
213
214
215
216
217
218
219
220
221
222
223
224
225
226
227
228
229
230
231
232
233
234
235
236
237
238
239
240
241
242
243
244
245
246
247
248
249
250
251
252
253
254
255
256
257
258
0.3831078143490641 1.802769890921026e-16 -0.9023182730312639
1 -2.02855914901989e-16 -7.340480141122364e-17
0.3831078143490643 -5.186050371142679e-17 0.9023182730312639
0.2306592917108549 0.9730345785980306 1.070866651018697e-16
-1 4.214856437429948e-16 1.930011307710472e-16
0.2306592917108543 -0.9730345785980307 -1.619359325930712e-16
0.3014619519903374 0.6969368202678713 -0.6940955166336582
0.8183881374329601 0.5746658650981546 -9.313957451209701e-17
1.238772725228578 2.855173644591172e-17 -0.795496002479109
-0.4189526710880462 3.268834300221456e-16 -0.6106773615982778
-0.5744811381742434 0.8185178201371219 2.491958008154191e-16
0.3014619519903371 -0.6969368202678711 -0.6940955166336583
-0.5744811381742438 -0.8185178201371216 -9.018514696177068e-17
0.8183881374329599 -0.5746658650981549 -2.573178075503697e-16
1.238772725228578 -2.745359273645359e-16 0.7954960024791086
0.3014619519903377 0.6969368202678712 0.6940955166336583
-0.418952671088046 1.225812862583047e-16 0.6106773615982778
0.3014619519903372 -0.6969368202678712 0.6940955166336582
0.3681611550135584 0.3117182990546357 -0.8683187616099163
0.8452044274320819 0.4844134829462487 -0.8704502856391361
0.7609120919404062 1.248835960912518e-16 -0.9799287189586511
0.6917043174853815 0.7471906235094794 -0.4393929612038512
1.005578160294169 0.3933993626797843 -0.4540345784548229
0.2439172515278738 0.9343587852405876 -0.3296759495739398
0.5321958802089869 0.8466212524432526 2.48843926425851e-17
0.9676076583989961 0.2524587479324326 -1.047693888508758e-16
1.056636402703718 -1.544869754636324e-16 -0.3419139134314229
0.02650600544736192 2.237028499228938e-16 -0.7953757812276733
-0.126125421946371 0.4126486318112728 -0.687011654616882
-0.5941995433421098 0.469876305852684 -0.4241860551555432
-0.2078732310216295 0.8105312846320305 -0.4325087141299503
-0.8249004849341605 4.222801984656268e-16 -0.3399279358288306
-0.9119901917744578 0.4102120062933162 1.840874440791019e-16
-0.1150828237086942 0.9933558998099494 1.210107928608282e-16
0.3681611550135585 -0.3117182990546353 -0.8683187616099163
-0.126125421946371 -0.4126486318112723 -0.6870116546168822
-0.2078732310216298 -0.8105312846320302 -0.4325087141299504
-0.5941995433421101 -0.4698763058526833 -0.4241860551555434
0.2439172515278733 -0.9343587852405877 -0.32967594957394
-0.1150828237086949 -0.9933558998099494 -1.396278379163402e-16
-0.9119901917744581 -0.4102120062933154 2.667933972160897e-18
0.8452044274320818 -0.4844134829462486 -0.8704502856391361
1.005578160294169 -0.3933993626797844 -0.4540345784548229
0.6917043174853814 -0.7471906235094795 -0.4393929612038514
0.967607658398996 -0.2524587479324329 -2.054301742174034e-16
0.5321958802089862 -0.846621252443253 -1.475288992381831e-16
0.7609120919404064 -2.144740019828019e-16 0.9799287189586512
0.8452044274320821 0.4844134829462485 0.8704502856391362
0.3681611550135587 0.3117182990546355 0.8683187616099164
1.005578160294169 0.3933993626797841 0.4540345784548226
0.6917043174853819 0.7471906235094792 0.4393929612038512
1.056636402703718 -2.012145174248547e-16 0.3419139134314225
0.243917251527874 0.9343587852405876 0.32967594957394
-0.1261254219463706 0.4126486318112726 0.6870116546168822
0.02650600544736222 4.605646910177226e-17 0.7953757812276734
-0.2078732310216292 0.8105312846320304 0.4325087141299505
-0.5941995433421094 0.4698763058526838 0.4241860551555437
-0.8249004849341603 3.141352695902833e-16 0.3399279358288307
-0.1261254219463709 -0.4126486318112724 0.6870116546168822
0.3681611550135587 -0.3117182990546357 0.8683187616099163
-0.5941995433421099 -0.4698763058526833 0.4241860551555435
-0.2078732310216299 -0.8105312846320302 0.4325087141299503
0.2439172515278734 -0.9343587852405877 0.3296759495739399
0.845204427432082 -0.4844134829462487 0.870450285639136
0.6917043174853814 -0.7471906235094795 0.439392961203851
1.005578160294169 -0.3933993626797845 0.4540345784548226
0.3812837863780389 0.1349794928037057 -0.8963858507078403
0.5967118827652687 0.191958652804955 -0.9390680534142035
0.5426279266726738 9.622313351924035e-17 -0.9400436536588563
0.6018962768018573 0.4030573607181387 -0.8937455576316772
0.8426158497692006 0.2391595486707601 -0.9666342291485079
0.3395271371853872 0.5065453080490147 -0.8050829275728451
0.5734473598667901 0.6118092240654431 -0.7894383241200907
1.111209944313422 0.2984897043733685 -0.9133079150315402
1.02216455802759 -1.224333970618574e-17 -0.9997428008966125
0.5271256572171436 0.775261311472271 -0.6133413426501171
0.7865160992896846 0.6620897119805371 -0.6670925840184915
0.877142470394075 0.5872357497232209 -0.4580125509103004
1.014366288145768 0.4827455300197929 -0.680786072325851
0.7686747273634316 0.6593015269148345 -0.2295563022667254
0.8919967305298977 0.4944226649894497 -0.2345755033353252
1.141231148990088 0.2410705646929548 -0.6451101323744348
0.2671505115047069 0.8493236107391937 -0.5277500695238682
0.4727952385375506 0.8614021223363547 -0.4004850422301398
0.4224037940875749 0.902488680555484 -0.1921051639229346
0.6074216446278667 0.7993003020891624 -0.2159063205214161
0.2325897476002773 0.9667263459002816 -0.1429239110923189
0.3679424994096183 0.9298485452632612 6.410550929917415e-17
0.6891540037640519 0.7246149039979629 -1.113799259468526e-17
1.063413846861236 0.1894098959641781 -0.4185689083342174
1.140669796004336 -1.025857698594051e-16 -0.5567931521218726
0.9711655755461625 0.3206462863084802 -0.2271953857681633
1.00836071674383 0.1523594720164108 -0.2024850032380783
0.9110682009157 0.4122556649461954 -1.454800527204728e-16
0.9940273735920269 0.1091310246893017 -1.021790801126989e-16
1.01097295496435 -1.926668108893744e-16 -0.1485564972448834
0.2273898735706112 2.104966905757801e-16 -0.8594368778025672
0.1668863105268772 0.1796514270712282 -0.8318597970233829
-0.06011478688863492 0.2024917792918403 -0.7526180076932042
0.1210222739576103 0.3732288433187101 -0.7847597498484307
-0.1940699663124994 2.916464780395766e-16 -0.7124778287241307
-0.2914465241842022 0.2196397429367797 -0.6561410774241849
0.07586651198144496 0.571772300867299 -0.7044903000084368
-0.5181145907600587 0.2344909164057611 -0.539213126774407
-0.3670029359524311 0.4448083407537647 -0.569453464028316
-0.4182180732968722 0.662678682050083 -0.4363696754894326
-0.1791411062169647 0.6213569776977645 -0.5849447192242553
-0.6285963065012337 0.6825044092990454 -0.2449686010253197
-0.4207147207733961 0.8440840126391782 -0.241207451898673
0.03768106312089575 0.7589230295457033 -0.5791368943094773
-0.6349251746420238 3.756081408751699e-16 -0.4878530486468177
-0.7281635959024318 0.2439648919467297 -0.3962170137017535
-0.8998106835416267 0.2364753476873682 -0.2172955071561369
-0.7919378019741337 0.4723782913008858 -0.2380963104392229
-0.9586318477597708 4.387720591468241e-16 -0.1658758461527515
-0.9833272742543364 0.1818446361802762 1.901805227657266e-16
-0.7723967789293467 0.6351403119780462 2.519518382266225e-16
0.02089546744592758 0.9043390538747355 -0.4027443908327347
-0.190973386399693 0.9434725097573089 -0.2262915483775226
0.03404941298041362 0.9803042944686242 -0.1974314756285838
-0.3446886393979746 0.9387170723226317 1.642814941002049e-16
0.0853333356918317 0.9963524586308327 1.19059402549577e-16
0.3812837863780388 -0.1349794928037054 -0.8963858507078403
0.1668863105268771 -0.1796514270712278 -0.831859797023383
0.1210222739576102 -0.3732288433187098 -0.7847597498484307
-0.06011478688863499 -0.2024917792918398 -0.7526180076932042
0.3395271371853871 -0.5065453080490142 -0.8050829275728452
0.07586651198144483 -0.5717723008672987 -0.7044903000084369
-0.2914465241842023 -0.219639742936779 -0.6561410774241849
0.03768106312089536 -0.7589230295457029 -0.5791368943094776
-0.1791411062169649 -0.6213569776977641 -0.5849447192242555
-0.4182180732968725 -0.6626786820500823 -0.4363696754894328
-0.3670029359524313 -0.4448083407537641 -0.5694534640283161
-0.4207147207733967 -0.8440840126391779 -0.2412074518986732
-0.628596306501234 -0.6825044092990447 -0.2449686010253199
-0.5181145907600587 -0.2344909164057604 -0.5392131267744071
0.2671505115047065 -0.8493236107391935 -0.5277500695238685
0.02089546744592708 -0.9043390538747353 -0.402744390832735
0.03404941298041297 -0.9803042944686242 -0.1974314756285841
-0.1909733863996936 -0.9434725097573087 -0.226291548377523
0.2325897476002766 -0.9667263459002817 -0.1429239110923192
0.08533333569183103 -0.9963524586308328 -1.156897968170418e-16
-0.3446886393979752 -0.9387170723226315 -1.232111205751535e-16
-0.728163595902432 -0.2439648919467289 -0.3962170137017536
-0.791937801974134 -0.4723782913008852 -0.238096310439223
-0.899810683541627 -0.2364753476873673 -0.2172955071561369
-0.7723967789293473 -0.6351403119780457 -5.278990896176851e-17
-0.9833272742543365 -0.1818446361802754 1.360924841809787e-16
0.5967118827652683 -0.1919586528049547 -0.9390680534142034
0.8426158497692006 -0.23915954867076 -0.9666342291485079
0.6018962768018571 -0.4030573607181385 -0.8937455576316772
1.111209944313421 -0.2984897043733685 -0.9133079150315404
0.5734473598667899 -0.6118092240654431 -0.7894383241200907
1.141231148990088 -0.2410705646929548 -0.645110132374435
1.014366288145768 -0.4827455300197929 -0.680786072325851
0.8771424703940749 -0.5872357497232211 -0.4580125509103006
0.7865160992896842 -0.6620897119805372 -0.6670925840184918
0.8919967305298976 -0.4944226649894501 -0.2345755033353253
0.7686747273634312 -0.6593015269148348 -0.2295563022667256
0.5271256572171432 -0.775261311472271 -0.6133413426501173
1.063413846861236 -0.1894098959641785 -0.4185689083342174
1.00836071674383 -0.1523594720164112 -0.2024850032380784
0.9711655755461625 -0.3206462863084806 -0.2271953857681635
0.9940273735920269 -0.1091310246893021 -9.269102267366256e-17
0.9110682009156997 -0.4122556649461959 -2.601525648648454e-16
0.4727952385375501 -0.8614021223363548 -0.40048504223014
0.6074216446278663 -0.7993003020891626 -0.2159063205214163
0.4224037940875744 -0.9024886805554841 -0.1921051639229348
0.6891540037640516 -0.7246149039979634 -2.7526753126865e-16
0.3679424994096178 -0.9298485452632614 -1.685737466756061e-16
0.5426279266726742 -9.831494076965866e-17 0.9400436536588564
0.5967118827652688 0.1919586528049548 0.9390680534142034
0.3812837863780392 0.1349794928037055 0.8963858507078404
0.8426158497692009 0.2391595486707599 0.9666342291485079
0.6018962768018579 0.4030573607181387 0.8937455576316773
1.02216455802759 -1.958934352989719e-16 0.9997428008966125
1.111209944313422 0.2984897043733684 0.9133079150315402
0.5734473598667904 0.6118092240654431 0.7894383241200907
0.3395271371853875 0.5065453080490144 0.8050829275728453
1.141231148990088 0.2410705646929546 0.6451101323744346
1.014366288145768 0.4827455300197927 0.6807860723258506
0.8771424703940752 0.5872357497232209 0.4580125509103004
0.7865160992896846 0.6620897119805371 0.6670925840184914
0.8919967305298978 0.4944226649894496 0.2345755033353251
0.7686747273634317 0.6593015269148342 0.2295563022667254
0.5271256572171439 0.7752613114722711 0.6133413426501171
1.140669796004336 -2.120105910427707e-16 0.5567931521218719
1.063413846861236 0.189409895964178 0.4185689083342173
1.00836071674383 0.1523594720164108 0.2024850032380782
0.9711655755461626 0.3206462863084801 0.2271953857681633
1.01097295496435 -2.28612111428437e-16 0.1485564972448832
0.4727952385375508 0.8614021223363547 0.4004850422301398
0.2671505115047073 0.8493236107391935 0.5277500695238684
0.6074216446278669 0.7993003020891624 0.2159063205214161
0.4224037940875751 0.9024886805554839 0.1921051639229347
0.2325897476002774 0.9667263459002816 0.1429239110923191
0.1668863105268776 0.179651427071228 0.831859797023383
0.2273898735706115 -1.119663247743511e-17 0.8594368778025673
0.1210222739576107 0.37322884331871 0.7847597498484308
-0.06011478688863457 0.2024917792918402 0.7526180076932044
0.07586651198144531 0.571772300867299 0.7044903000084368
-0.2914465241842019 0.2196397429367794 0.656141077424185
-0.1940699663124991 1.121717223229141e-16 0.7124778287241308
0.03768106312089606 0.7589230295457032 0.5791368943094776
-0.1791411062169644 0.6213569776977643 0.5849447192242556
-0.4182180732968718 0.6626786820500826 0.436369675489433
-0.3670029359524307 0.4448083407537645 0.5694534640283162
-0.420714720773396 0.8440840126391781 0.2412074518986733
-0.6285963065012334 0.6825044092990453 0.24496860102532
-0.5181145907600585 0.2344909164057609 0.5392131267744071
0.02089546744592774 0.9043390538747355 0.402744390832735
0.0340494129804137 0.9803042944686242 0.197431475628584
-0.1909733863996929 0.9434725097573088 0.226291548377523
-0.7281635959024317 0.2439648919467295 0.3962170137017538
-0.6349251746420236 1.743018170074318e-16 0.4878530486468179
-0.7919378019741334 0.4723782913008856 0.2380963104392232
-0.8998106835416266 0.2364753476873681 0.2172955071561372
-0.9586318477597707 3.796117815090499e-16 0.1658758461527516
0.1668863105268775 -0.179651427071228 0.831859797023383
0.3812837863780391 -0.1349794928037056 0.8963858507078404
-0.06011478688863472 -0.2024917792918401 0.7526180076932044
0.1210222739576105 -0.3732288433187099 0.7847597498484308
-0.2914465241842021 -0.2196397429367792 0.656141077424185
0.07586651198144492 -0.5717723008672988 0.7044903000084368
0.3395271371853872 -0.5065453080490144 0.8050829275728452
-0.5181145907600587 -0.2344909164057606 0.5392131267744071
-0.3670029359524309 -0.4448083407537642 0.5694534640283162
-0.4182180732968723 -0.6626786820500823 0.4363696754894329
-0.179141106216965 -0.6213569776977642 0.5849447192242554
-0.628596306501234 -0.6825044092990449 0.24496860102532
-0.4207147207733966 -0.844084012639178 0.241207451898673
0.03768106312089544 -0.7589230295457031 0.5791368943094775
-0.7281635959024318 -0.2439648919467291 0.3962170137017537
-0.8998106835416267 -0.2364753476873674 0.217295507156137
-0.7919378019741338 -0.4723782913008853 0.2380963104392232
0.02089546744592711 -0.9043390538747353 0.4027443908327348
0.2671505115047066 -0.8493236107391937 0.5277500695238682
-0.1909733863996936 -0.9434725097573088 0.2262915483775228
0.03404941298041303 -0.9803042944686242 0.1974314756285838
0.2325897476002767 -0.9667263459002818 0.1429239110923188
0.596711882765269 -0.1919586528049551 0.9390680534142034
0.6018962768018576 -0.4030573607181388 0.8937455576316772
0.842615849769201 -0.2391595486707603 0.9666342291485078
0.5734473598667902 -0.6118092240654432 0.7894383241200907
1.111209944313422 -0.2984897043733687 0.9133079150315396
0.5271256572171434 -0.775261311472271 0.6133413426501171
0.7865160992896845 -0.6620897119805372 0.6670925840184915
0.8771424703940749 -0.587235749723221 0.4580125509103003
1.014366288145768 -0.4827455300197931 0.6807860723258508
0.7686747273634312 -0.6593015269148346 0.2295563022667253
0.8919967305298975 -0.4944226649894501 0.2345755033353248
1.141231148990088 -0.241070564692955 0.6451101323744347
0.4727952385375503 -0.8614021223363548 0.4004850422301398
0.4224037940875746 -0.9024886805554841 0.1921051639229345
0.6074216446278661 -0.7993003020891627 0.2159063205214159
1.063413846861235 -0.1894098959641784 0.4185689083342171
0.9711655755461623 -0.3206462863084805 0.2271953857681632
1.00836071674383 -0.1523594720164113 0.202485003238078
$EndNodes
$Elements
1 512 1 512
2 1 2 512
1 1 67 69 
2 67 68 69 
3 67 19 68 
4 69 68 21 
5 19 70 68 
6 70 71 68 
7 70 20 71 
8 68 71 21 
9 19 72 70 
10 72 73 70 
11 72 7 73 
12 70 73 20 
13 21 71 75 
14 71 74 75 
15 71 20 74 
16 75 74 9 
17 7 76 73 
18 76 77 73 
19 76 22 77 
20 73 77 20 
21 22 78 77 
22 78 79 77 
23 78 23 79 
24 77 79 20 
25 22 80 78 
26 80 81 78 
27 80 8 81 
28 78 81 23 
29 20 79 74 
30 79 82 74 
31 79 23 82 
32 74 82 9 
33 7 83 76 
34 83 84 76 
35 83 24 84 
36 76 84 22 
37 24 85 84 
38 85 86 84 
39 85 25 86 
40 84 86 22 
41 24 87 85 
42 87 88 85 
43 87 4 88 
44 85 88 25 
45 22 86 80 
46 86 89 80 
47 86 25 89 
48 80 89 8 
49 9 82 91 
50 82 90 91 
51 82 23 90 
52 91 90 27 
53 23 92 90 
54 92 93 90 
55 92 26 93 
56 90 93 27 
57 23 81 92 
58 81 94 92 
59 81 8 94 
60 92 94 26 
61 27 93 96 
62 93 95 96 
63 93 26 95 
64 96 95 2 
65 1 97 67 
66 97 98 67 
67 97 28 98 
68 67 98 19 
69 28 99 98 
70 99 100 98 
71 99 29 100 
72 98 100 19 
73 28 101 99 
74 101 102 99 
75 101 10 102 
76 99 102 29 
77 19 100 72 
78 100 103 72 
79 100 29 103 
80 72 103 7 
81 10 104 102 
82 104 105 102 
83 104 30 105 
84 102 105 29 
85 30 106 105 
86 106 107 105 
87 106 31 107 
88 105 107 29 
89 30 108 106 
90 108 109 106 
91 108 11 109 
92 106 109 31 
93 29 107 103 
94 107 110 103 
95 107 31 110 
96 103 110 7 
97 10 111 104 
98 111 112 104 
99 111 32 112 
100 104 112 30 
101 32 113 112 
102 113 114 112 
103 113 33 114 
104 112 114 30 
105 32 115 113 
106 115 116 113 
107 115 5 116 
108 113 116 33 
109 30 114 108 
110 114 117 108 
111 114 33 117 
112 108 117 11 
113 7 110 83 
114 110 118 83 
115 110 31 118 
116 83 118 24 
117 31 119 118 
118 119 120 118 
119 119 34 120 
120 118 120 24 
121 31 109 119 
122 109 121 119 
123 109 11 121 
124 119 121 34 
125 24 120 87 
126 120 122 87 
127 120 34 122 
128 87 122 4 
129 1 123 97 
130 123 124 97 
131 123 35 124 
132 97 124 28 
133 35 125 124 
134 125 126 124 
135 125 36 126 
136 124 126 28 
137 35 127 125 
138 127 128 125 
139 127 12 128 
140 125 128 36 
141 28 126 101 
142 126 129 101 
143 126 36 129 
144 101 129 10 
145 12 130 128 
146 130 131 128 
147 130 37 131 
148 128 131 36 
149 37 132 131 
150 132 133 131 
151 132 38 133 
152 131 133 36 
153 37 134 132 
154 134 135 132 
155 134 13 135 
156 132 135 38 
157 36 133 129 
158 133 136 129 
159 133 38 136 
160 129 136 10 
161 12 137 130 
162 137 138 130 
163 137 39 138 
164 130 138 37 
165 39 139 138 
166 139 140 138 
167 139 40 140 
168 138 140 37 
169 39 141 139 
170 141 142 139 
171 141 6 142 
172 139 142 40 
173 37 140 134 
174 140 143 134 
175 140 40 143 
176 134 143 13 
177 10 136 111 
178 136 144 111 
179 136 38 144 
180 111 144 32 
181 38 145 144 
182 145 146 144 
183 145 41 146 
184 144 146 32 
185 38 135 145 
186 135 147 145 
187 135 13 147 
188 145 147 41 
189 32 146 115 
190 146 148 115 
191 146 41 148 
192 115 148 5 
193 1 69 123 
194 69 149 123 
195 69 21 149 
196 123 149 35 
197 21 150 149 
198 150 151 149 
199 150 42 151 
200 149 151 35 
201 21 75 150 
202 75 152 150 
203 75 9 152 
204 150 152 42 
205 35 151 127 
206 151 153 127 
207 151 42 153 
208 127 153 12 
209 9 154 152 
210 154 155 152 
211 154 43 155 
212 152 155 42 
213 43 156 155 
214 156 157 155 
215 156 44 157 
216 155 157 42 
217 43 158 156 
218 158 159 156 
219 158 14 159 
220 156 159 44 
221 42 157 153 
222 157 160 153 
223 157 44 160 
224 153 160 12 
225 9 91 154 
226 91 161 154 
227 91 27 161 
228 154 161 43 
229 27 162 161 
230 162 163 161 
231 162 45 163 
232 161 163 43 
233 27 96 162 
234 96 164 162 
235 96 2 164 
236 162 164 45 
237 43 163 158 
238 163 165 158 
239 163 45 165 
240 158 165 14 
241 12 160 137 
242 160 166 137 
243 160 44 166 
244 137 166 39 
245 44 167 166 
246 167 168 166 
247 167 46 168 
248 166 168 39 
249 44 159 167 
250 159 169 167 
251 159 14 169 
252 167 169 46 
253 39 168 141 
254 168 170 141 
255 168 46 170 
256 141 170 6 
257 3 171 173 
258 171 172 173 
259 171 47 172 
260 173 172 49 
261 47 174 172 
262 174 175 172 
263 174 48 175 
264 172 175 49 
265 47 176 174 
266 176 177 174 
267 176 15 177 
268 174 177 48 
269 49 175 179 
270 175 178 179 
271 175 48 178 
272 179 178 16 
273 15 180 177 
274 180 181 177 
275 180 50 181 
276 177 181 48 
277 50 182 181 
278 182 183 181 
279 182 51 183 
280 181 183 48 
281 50 184 182 
282 184 185 182 
283 184 8 185 
284 182 185 51 
285 48 183 178 
286 183 186 178 
287 183 51 186 
288 178 186 16 
289 15 187 180 
290 187 188 180 
291 187 52 188 
292 180 188 50 
293 52 189 188 
294 189 190 188 
295 189 26 190 
296 188 190 50 
297 52 191 189 
298 191 95 189 
299 191 2 95 
300 189 95 26 
301 50 190 184 
302 190 94 184 
303 190 26 94 
304 184 94 8 
305 16 186 193 
306 186 192 193 
307 186 51 192 
308 193 192 53 
309 51 194 192 
310 194 195 192 
311 194 25 195 
312 192 195 53 
313 51 185 194 
314 185 89 194 
315 185 8 89 
316 194 89 25 
317 53 195 196 
318 195 88 196 
319 195 25 88 
320 196 88 4 
321 3 173 198 
322 173 197 198 
323 173 49 197 
324 198 197 55 
325 49 199 197 
326 199 200 197 
327 199 54 200 
328 197 200 55 
329 49 179 199 
330 179 201 199 
331 179 16 201 
332 199 201 54 
333 55 200 203 
334 200 202 203 
335 200 54 202 
336 203 202 17 
337 16 204 201 
338 204 205 201 
339 204 56 205 
340 201 205 54 
341 56 206 205 
342 206 207 205 
343 206 57 207 
344 205 207 54 
345 56 208 206 
346 208 209 206 
347 208 11 209 
348 206 209 57 
349 54 207 202 
350 207 210 202 
351 207 57 210 
352 202 210 17 
353 16 193 204 
354 193 211 204 
355 193 53 211 
356 204 211 56 
357 53 212 211 
358 212 213 211 
359 212 34 213 
360 211 213 56 
361 53 196 212 
362 196 122 212 
363 196 4 122 
364 212 122 34 
365 56 213 208 
366 213 121 208 
367 213 34 121 
368 208 121 11 
369 17 210 215 
370 210 214 215 
371 210 57 214 
372 215 214 58 
373 57 216 214 
374 216 217 214 
375 216 33 217 
376 214 217 58 
377 57 209 216 
378 209 117 216 
379 209 11 117 
380 216 117 33 
381 58 217 218 
382 217 116 218 
383 217 33 116 
384 218 116 5 
385 3 198 220 
386 198 219 220 
387 198 55 219 
388 220 219 60 
389 55 221 219 
390 221 222 219 
391 221 59 222 
392 219 222 60 
393 55 203 221 
394 203 223 221 
395 203 17 223 
396 221 223 59 
397 60 222 225 
398 222 224 225 
399 222 59 224 
400 225 224 18 
401 17 226 223 
402 226 227 223 
403 226 61 227 
404 223 227 59 
405 61 228 227 
406 228 229 227 
407 228 62 229 
408 227 229 59 
409 61 230 228 
410 230 231 228 
411 230 13 231 
412 228 231 62 
413 59 229 224 
414 229 232 224 
415 229 62 232 
416 224 232 18 
417 17 215 226 
418 215 233 226 
419 215 58 233 
420 226 233 61 
421 58 234 233 
422 234 235 233 
423 234 41 235 
424 233 235 61 
425 58 218 234 
426 218 148 234 
427 218 5 148 
428 234 148 41 
429 61 235 230 
430 235 147 230 
431 235 41 147 
432 230 147 13 
433 18 232 237 
434 232 236 237 
435 232 62 236 
436 237 236 63 
437 62 238 236 
438 238 239 236 
439 238 40 239 
440 236 239 63 
441 62 231 238 
442 231 143 238 
443 231 13 143 
444 238 143 40 
445 63 239 240 
446 239 142 240 
447 239 40 142 
448 240 142 6 
449 3 220 171 
450 220 241 171 
451 220 60 241 
452 171 241 47 
453 60 242 241 
454 242 243 241 
455 242 64 243 
456 241 243 47 
457 60 225 242 
458 225 244 242 
459 225 18 244 
460 242 244 64 
461 47 243 176 
462 243 245 176 
463 243 64 245 
464 176 245 15 
465 18 246 244 
466 246 247 244 
467 246 65 247 
468 244 247 64 
469 65 248 247 
470 248 249 247 
471 248 66 249 
472 247 249 64 
473 65 250 248 
474 250 251 248 
475 250 14 251 
476 248 251 66 
477 64 249 245 
478 249 252 245 
479 249 66 252 
480 245 252 15 
481 18 237 246 
482 237 253 246 
483 237 63 253 
484 246 253 65 
485 63 254 253 
486 254 255 253 
487 254 46 255 
488 253 255 65 
489 63 240 254 
490 240 170 254 
491 240 6 170 
492 254 170 46 
493 65 255 250 
494 255 169 250 
495 255 46 169 
496 250 169 14 
497 15 252 187 
498 252 256 187 
499 252 66 256 
500 187 256 52 
501 66 257 256 
502 257 258 256 
503 257 45 258 
504 256 258 52 
505 66 251 257 
506 251 165 257 
507 251 14 165 
508 257 165 45 
509 52 258 191 
510 258 164 191 
511 258 45 164 
512 191 164 2 
$EndElements
