$MeshFormat
4.1 0 8
$EndMeshFormat
$Entities
0 0 1 0
1 -1 -0.9597036755048112 -0.8901598379002663 1.1214911352863 0.9597036755048112 0.8901598379002663 0 0 
$EndEntities
$Nodes
1 18 1 18
2 1 0 18
1
2
3
4
5
6
7
8
9
10
11
12
13
14
15
16
17
18
0.3367361385833197 0 -0.8901598379002663
1 -1.145781982847871e-16 -8.3118214028312e-17
0.3367361385833197 -2.678363669886284e-17 0.8901598379002663
0.28101397691673 0.9597036755048111 -2.345823194866083e-17
-1 3.484276328962233e-16 -1.567989897442581e-16
0.2810139769167297 -0.9597036755048112 -1.407493916919649e-16
0.3162523497995182 0.7577506921864445 -0.6448929012271001
0.8285321906562204 0.5599414335860533 -1.797979904043949e-17
1.1214911352863 -1.238594760261678e-16 -0.5128448149616647
-0.3892710108362096 1.735764006375129e-16 -0.6253552450919783
-0.4878537005364817 0.8729254073933586 -5.467054428749354e-17
0.3162523497995179 -0.7577506921864444 -0.6448929012271001
-0.4878537005364821 -0.8729254073933582 -1.6947868729123e-16
0.8285321906562203 -0.5599414335860534 -1.033838444825271e-16
1.1214911352863 -1.602887336809229e-16 0.512844814961664
0.3162523497995183 0.7577506921864446 0.6448929012270999
-0.3892710108362098 1.207488004434872e-16 0.6253552450919782
0.316252349799518 -0.7577506921864446 0.6448929012270999
$EndNodes
$Elements
1 32 1 32
2 1 2 32
1 1 7 9 
2 7 8 9 
3 7 4 8 
4 9 8 2 
5 1 10 7 
6 10 11 7 
7 10 5 11 
8 7 11 4 
9 1 12 10 
10 12 13 10 
11 12 6 13 
12 10 13 5 
13 1 9 12 
14 9 14 12 
15 9 2 14 
16 12 14 6 
17 3 15 16 
18 15 8 16 
19 15 2 8 
20 16 8 4 
21 3 16 17 
22 16 11 17 
23 16 4 11 
24 17 11 5 
25 3 17 18 
26 17 13 18 
27 17 5 13 
28 18 13 6 
29 3 18 15 
30 18 14 15 
31 18 6 14 
32 15 14 2 
$EndElements
