$MeshFormat
4.1 0 8
$EndMeshFormat
$Entities
0 0 1 0
1 -1 -0.9938499311068625 -0.9761236935248745 1.193717399076998 0.9938499311068625 0.9761236935248745 0 0 
$EndEntities
$Nodes
1 66 1 66
2 1 0 66
1
2
3
4
5
6
7
8
9
10
11
12
13
14
15
16
17
18
19
20
21
22
23
24
25
26
27
28
29
30
31
32
33
34
35
36
37
38
39
40
41
42
43
44
45
46
47
48
49
50
51
52
53
54
55
56
57
58
59
60
61
62
63
64
65
66
0.3626239883908428 2.002988060484489e-16 -0.8970119084817058
1 -1.539961284297417e-16 -1.791780499417294e-16
0.362623988390843 -2.50373507560561e-17 0.8970119084817059
0.2363927007897492 0.971657599678677 3.586030268733074e-17
-1 3.836467882630831e-16 1.167699140045444e-16
0.2363927007897486 -0.9716575996786772 -2.629755530404252e-16
0.2927146660795183 0.7017245323652805 -0.6888591784014158
0.8140181840041965 0.5808393892553347 -1.024213980200332e-16
1.193717399076997 -6.862310892929e-18 -0.675631449637642
-0.4160014809301025 2.620814634920839e-16 -0.6121562845934716
-0.5634569039954773 0.8261454577372144 1.683630301510632e-16
0.2927146660795181 -0.7017245323652802 -0.6888591784014159
-0.563456903995478 -0.8261454577372139 -6.235667783372714e-17
0.8140181840041962 -0.5808393892553351 -2.048427960400663e-16
1.193717399076997 -2.127316376807988e-16 0.6756314496376417
0.2927146660795187 0.7017245323652804 0.6888591784014159
-0.4160014809301025 1.365007622354604e-16 0.6121562845934717
0.2927146660795181 -0.7017245323652805 0.6888591784014158
0.355220792298093 0.326156497074144 -0.8620558876741524
0.8338899256907888 0.5179498099642963 -0.8475771876924597
0.7356020536843857 1.325132592373615e-16 -0.9761236935248745
0.6872167917456576 0.7499826278913687 -0.4118626326246648
0.9866355334435681 0.3961333007270817 -0.4004743327348258
0.2481890962227519 0.9345784867228116 -0.3263161209168974
0.5372490409436018 0.8434236586705285 -1.551874349312779e-17
0.9642939093945692 0.2648343941117515 -1.787260196848177e-16
1.042981277698749 -1.126397163009492e-16 -0.2966280100076545
0.01261471861661502 2.133471439777201e-16 -0.790564942495071
-0.1280068377839161 0.4129846907118621 -0.686173214116917
-0.5864211761135726 0.46881143922792 -0.4301734960008355
-0.2017658141324141 0.8117500586793001 -0.4343303900695946
-0.8121159621919583 3.482492060326031e-16 -0.3519815171499227
-0.9059429489859113 0.4233997793843434 1.894621885183923e-16
-0.1107353350962765 0.9938499311068626 8.630066598961907e-17
0.3552207922980928 -0.3261564970741436 -0.8620558876741525
-0.1280068377839164 -0.4129846907118614 -0.6861732141169171
-0.2017658141324145 -0.8117500586792996 -0.434330390069595
-0.5864211761135727 -0.4688114392279195 -0.4301734960008357
0.2481890962227513 -0.9345784867228116 -0.3263161209168978
-0.1107353350962772 -0.9938499311068625 -2.139537344325972e-16
-0.9059429489859117 -0.4233997793843426 -7.287007250707391e-18
0.8338899256907886 -0.517949809964296 -0.84757718769246
0.986635533443568 -0.3961333007270821 -0.4004743327348256
0.6872167917456574 -0.7499826278913688 -0.4118626326246652
0.964293909394569 -0.2648343941117519 -1.88132652299808e-16
0.5372490409436013 -0.8434236586705287 -2.250217806503528e-16
0.735602053684386 -1.144432693413576e-16 0.9761236935248745
0.8338899256907893 0.517949809964296 0.8475771876924599
0.3552207922980933 0.3261564970741438 0.8620558876741525
0.9866355334435681 0.3961333007270815 0.4004743327348255
0.6872167917456579 0.7499826278913685 0.4118626326246648
1.042981277698749 -1.91822091126369e-16 0.2966280100076541
0.248189096222752 0.9345784867228115 0.3263161209168977
-0.128006837783916 0.4129846907118619 0.6861732141169171
0.01261471861661523 3.441082967382582e-17 0.790564942495071
-0.2017658141324139 0.8117500586792999 0.4343303900695949
-0.5864211761135721 0.4688114392279199 0.4301734960008358
-0.8121159621919579 2.503940572300534e-16 0.351981517149923
-0.1280068377839163 -0.4129846907118618 0.6861732141169171
0.355220792298093 -0.3261564970741439 0.8620558876741524
-0.5864211761135727 -0.4688114392279195 0.4301734960008357
-0.2017658141324145 -0.8117500586792998 0.4343303900695946
0.2481890962227513 -0.9345784867228117 0.3263161209168974
0.8338899256907887 -0.5179498099642963 0.8475771876924597
0.6872167917456573 -0.7499826278913689 0.4118626326246647
0.9866355334435679 -0.3961333007270821 0.4004743327348252
$EndNodes
$Elements
1 128 1 128
2 1 2 128
1 1 19 21 
2 19 20 21 
3 19 7 20 
4 21 20 9 
5 7 22 20 
6 22 23 20 
7 22 8 23 
8 20 23 9 
9 7 24 22 
10 24 25 22 
11 24 4 25 
12 22 25 8 
13 9 23 27 
14 23 26 27 
15 23 8 26 
16 27 26 2 
17 1 28 19 
18 28 29 19 
19 28 10 29 
20 19 29 7 
21 10 30 29 
22 30 31 29 
23 30 11 31 
24 29 31 7 
25 10 32 30 
26 32 33 30 
27 32 5 33 
28 30 33 11 
29 7 31 24 
30 31 34 24 
31 31 11 34 
32 24 34 4 
33 1 35 28 
34 35 36 28 
35 35 12 36 
36 28 36 10 
37 12 37 36 
38 37 38 36 
39 37 13 38 
40 36 38 10 
41 12 39 37 
42 39 40 37 
43 39 6 40 
44 37 40 13 
45 10 38 32 
46 38 41 32 
47 38 13 41 
48 32 41 5 
49 1 21 35 
50 21 42 35 
51 21 9 42 
52 35 42 12 
53 9 43 42 
54 43 44 42 
55 43 14 44 
56 42 44 12 
57 9 27 43 
58 27 45 43 
59 27 2 45 
60 43 45 14 
61 12 44 39 
62 44 46 39 
63 44 14 46 
64 39 46 6 
65 3 47 49 
66 47 48 49 
67 47 15 48 
68 49 48 16 
69 15 50 48 
70 50 51 48 
71 50 8 51 
72 48 51 16 
73 15 52 50 
74 52 26 50 
75 52 2 26 
76 50 26 8 
77 16 51 53 
78 51 25 53 
79 51 8 25 
80 53 25 4 
81 3 49 55 
82 49 54 55 
83 49 16 54 
84 55 54 17 
85 16 56 54 
86 56 57 54 
87 56 11 57 
88 54 57 17 
89 16 53 56 
90 53 34 56 
91 53 4 34 
92 56 34 11 
93 17 57 58 
94 57 33 58 
95 57 11 33 
96 58 33 5 
97 3 55 60 
98 55 59 60 
99 55 17 59 
100 60 59 18 
101 17 61 59 
102 61 62 59 
103 61 13 62 
104 59 62 18 
105 17 58 61 
106 58 41 61 
107 58 5 41 
108 61 41 13 
109 18 62 63 
110 62 40 63 
111 62 13 40 
112 63 40 6 
113 3 60 47 
114 60 64 47 
115 60 18 64 
116 47 64 15 
117 18 65 64 
118 65 66 64 
119 65 14 66 
120 64 66 15 
121 18 63 65 
122 63 46 65 
123 63 6 46 
124 65 46 14 
125 15 66 52 
126 66 45 52 
127 66 14 45 
128 52 45 2 
$EndElements
